<?xml version="1.0" encoding="UTF-8"?>
<svg viewBox="0 0 320 512" xmlns="http://www.w3.org/2000/svg">
<path d="m88 352c22.1 0 40 17.9 40 40v48c0 22.1-17.9 40-40 40h-48c-22.09 0-40-17.9-40-40v-48c0-22.1 17.91-40 40-40h48zm192 0c22.1 0 40 17.9 40 40v48c0 22.1-17.9 40-40 40h-48c-22.1 0-40-17.9-40-40v-48c0-22.1 17.9-40 40-40h48zm-240-32c-22.09 0-40-17.9-40-40v-48c0-22.1 17.91-40 40-40h48c22.1 0 40 17.9 40 40v48c0 22.1-17.9 40-40 40h-48zm240-128c22.1 0 40 17.9 40 40v48c0 22.1-17.9 40-40 40h-48c-22.1 0-40-17.9-40-40v-48c0-22.1 17.9-40 40-40h48zm-240-32c-22.09 0-40-17.9-40-40v-48c0-22.09 17.91-40 40-40h48c22.1 0 40 17.91 40 40v48c0 22.1-17.9 40-40 40h-48zm240-128c22.1 0 40 17.91 40 40v48c0 22.1-17.9 40-40 40h-48c-22.1 0-40-17.9-40-40v-48c0-22.09 17.9-40 40-40h48z" fill="#fff"/>
</svg>